<?xml version="1.0" standalone="no"?><svg xmlns="http://www.w3.org/2000/svg" viewBox="0 0 1440 320"><path fill="#DF4C73" fill-opacity="1" d="M0,160L10.4,144C20.9,128,42,96,63,112C83.5,128,104,192,125,186.7C146.1,181,167,107,188,112C208.7,117,230,203,250,197.3C271.3,192,292,96,313,69.3C333.9,43,355,85,376,96C396.5,107,417,85,438,69.3C459.1,53,480,43,501,64C521.7,85,543,139,563,144C584.3,149,605,107,626,117.3C647,128,668,192,689,186.7C709.6,181,730,107,751,90.7C772.2,75,793,117,814,160C834.8,203,856,245,877,261.3C897.4,277,918,267,939,240C960,213,981,171,1002,181.3C1022.6,192,1043,256,1064,266.7C1085.2,277,1106,235,1127,208C1147.8,181,1169,171,1190,160C1210.4,149,1231,139,1252,122.7C1273,107,1294,85,1315,101.3C1335.7,117,1357,171,1377,186.7C1398.3,203,1419,181,1430,170.7L1440,160L1440,320L1429.6,320C1419.1,320,1398,320,1377,320C1356.5,320,1336,320,1315,320C1293.9,320,1273,320,1252,320C1231.3,320,1210,320,1190,320C1168.7,320,1148,320,1127,320C1106.1,320,1085,320,1064,320C1043.5,320,1023,320,1002,320C980.9,320,960,320,939,320C918.3,320,897,320,877,320C855.7,320,835,320,814,320C793,320,772,320,751,320C730.4,320,710,320,689,320C667.8,320,647,320,626,320C605.2,320,584,320,563,320C542.6,320,522,320,501,320C480,320,459,320,438,320C417.4,320,397,320,376,320C354.8,320,334,320,313,320C292.2,320,271,320,250,320C229.6,320,209,320,188,320C167,320,146,320,125,320C104.3,320,83,320,63,320C41.7,320,21,320,10,320L0,320Z"></path></svg>